<?xml version="1.0" standalone="no"?>
<!DOCTYPE svg PUBLIC "-//W3C//DTD SVG 20010904//EN"
 "http://www.w3.org/TR/2001/REC-SVG-20010904/DTD/svg10.dtd">
<svg version="1.0" xmlns="http://www.w3.org/2000/svg"
 width="640.000000pt" height="640.000000pt" viewBox="0 0 640.000000 640.000000"
 preserveAspectRatio="xMidYMid meet">
<metadata>
Created by potrace 1.14, written by Peter Selinger 2001-2017
</metadata>
<g transform="translate(0.000000,640.000000) scale(0.100000,-0.100000)"
fill="#000000" stroke="none">
<path d="M3785 5708 c-2 -7 -9 -30 -15 -52 -9 -28 -15 -35 -21 -25 -7 12 -9
12 -9 0 0 -7 -6 -11 -15 -7 -8 3 -15 2 -15 -2 0 -4 -12 -9 -27 -10 -22 -1 -24
0 -13 8 13 8 13 10 -2 10 -9 0 -19 -6 -22 -12 -3 -7 -4 -2 -1 12 5 29 -8 55
-23 46 -6 -3 -16 -23 -22 -44 -7 -20 -17 -41 -23 -47 -7 -7 -8 -6 -3 3 11 19
-3 35 -20 21 -11 -9 -14 -9 -14 1 0 9 -4 9 -17 -1 -15 -12 -16 -12 -8 1 6 12
5 12 -5 3 -7 -6 -19 -9 -28 -6 -11 5 -13 2 -8 -8 4 -8 0 -5 -8 5 -9 11 -16 26
-16 34 0 28 -24 5 -35 -34 -7 -25 -13 -34 -18 -27 -10 16 -49 -5 -41 -22 3 -5
-1 -2 -9 8 -15 18 -15 18 -21 0 -3 -10 -4 -6 -2 9 2 15 -1 33 -6 40 -11 18
-38 -16 -39 -51 -1 -17 -3 -20 -6 -9 -4 16 -6 16 -19 3 -8 -8 -21 -12 -28 -9
-9 4 -21 -8 -31 -31 -21 -43 -29 -41 -14 4 8 22 8 36 1 43 -11 11 -20 -1 -63
-82 -20 -37 -36 -51 -87 -76 -34 -17 -84 -36 -110 -42 -90 -20 -244 -104 -388
-211 -149 -112 -358 -313 -415 -401 l-33 -51 -19 38 c-30 60 -123 167 -181
212 -30 22 -94 61 -143 85 -85 44 -92 46 -211 53 -115 8 -128 7 -184 -14 -70
-27 -181 -105 -236 -168 -72 -82 -189 -318 -228 -461 -18 -68 -20 -300 -3
-399 48 -280 126 -417 320 -564 148 -112 284 -140 528 -109 137 18 257 47 322
79 l36 18 12 -162 c13 -171 6 -267 -35 -455 -11 -47 -17 -128 -17 -230 -2
-164 8 -219 56 -332 17 -42 18 -52 6 -139 -11 -77 -10 -133 1 -320 8 -124 14
-253 14 -286 1 -114 -21 -165 -68 -165 -33 0 -101 -54 -129 -103 -32 -55 -68
-186 -87 -310 -6 -46 -5 -49 22 -63 16 -8 26 -19 23 -24 -18 -28 -217 -76
-430 -104 -66 -8 -178 -22 -250 -31 -291 -37 -437 -89 -585 -207 -74 -59 -158
-202 -175 -299 -11 -64 -22 -202 -18 -220 6 -21 29 -26 36 -6 4 9 6 9 6 0 1
-10 436 -13 2141 -13 l2140 0 0 33 c0 17 -11 79 -25 137 -51 207 -193 391
-375 485 -59 30 -169 61 -245 70 -156 17 -457 85 -545 123 l-45 19 0 139 c0
116 -3 145 -18 172 -24 44 -81 69 -179 78 -72 6 -76 8 -81 33 -10 48 5 241 18
241 6 0 38 -9 70 -20 134 -46 275 -72 530 -96 93 -9 172 -17 175 -19 14 -9
333 38 385 56 65 23 205 95 272 141 23 15 50 41 59 58 10 16 27 31 39 34 35 9
113 99 120 140 14 72 -8 81 -99 41 -31 -14 -59 -25 -61 -25 -3 0 1 11 7 25 7
16 8 35 2 57 -9 31 -12 33 -63 36 -49 3 -53 5 -47 25 3 12 6 25 6 30 0 4 25 7
55 7 112 0 165 43 165 134 0 35 6 51 26 71 l27 27 -7 126 c-10 183 -46 304
-178 606 l-44 99 20 58 c20 56 20 59 3 184 -10 70 -16 129 -14 131 2 3 30 11
62 19 100 27 183 78 286 178 144 140 356 383 386 442 9 16 30 50 47 75 77 109
81 126 81 325 l0 181 -35 58 c-107 178 -270 212 -462 98 -68 -40 -115 -46
-208 -26 l-45 9 -5 115 c-6 127 -20 171 -87 263 -57 81 -102 125 -183 180
-100 67 -234 128 -215 97 6 -9 4 -11 -4 -5 -9 5 -8 12 7 25 28 26 68 138 54
152 -8 8 -16 3 -29 -20 -10 -18 -24 -32 -30 -32 -7 0 -13 -5 -13 -11 0 -5 5
-7 10 -4 6 3 10 1 10 -4 0 -14 -13 -14 -27 0 -6 6 -22 12 -37 13 -25 3 -30 -3
-29 -40 0 -6 -5 -11 -11 -11 -9 0 -8 12 2 44 24 71 -5 104 -33 37 -9 -22 -19
-33 -26 -28 -6 3 -16 0 -21 -7 -8 -11 -9 -10 -5 3 3 9 -1 22 -9 29 -8 7 -14 8
-13 3 1 -5 0 -20 -1 -34 -2 -14 -6 0 -9 30 -7 66 -22 71 -36 12 -10 -38 -13
-42 -24 -28 -7 9 -17 13 -22 10 -5 -3 -9 2 -9 10 0 21 -16 21 -24 0 -9 -22 -8
-26 6 -18 7 4 8 3 4 -5 -4 -6 -11 -9 -16 -6 -5 3 -10 0 -13 -7 -2 -7 -2 -2 1
12 9 42 8 95 -3 98 -5 1 -16 -17 -24 -39 -10 -30 -16 -37 -22 -28 -6 9 -9 10
-9 2 0 -16 -56 0 -83 24 -11 10 -17 12 -13 6 4 -7 2 -13 -4 -13 -6 0 -11 12
-10 28 3 41 1 52 -10 52 -6 0 -12 -6 -15 -12z m-398 -150 c-3 -8 -6 -5 -6 6
-1 11 2 17 5 13 3 -3 4 -12 1 -19z m533 18 c0 -2 -12 -11 -27 -20 l-28 -17 24
20 c23 21 31 25 31 17z m390 -46 c-6 -11 -13 -20 -16 -20 -2 0 0 9 6 20 6 11
13 20 16 20 2 0 0 -9 -6 -20z m-710 -3 c0 -2 -12 -14 -27 -28 l-28 -24 24 28
c23 25 31 32 31 24z m-340 -20 c0 -2 -12 -14 -27 -28 l-28 -24 24 28 c23 25
31 32 31 24z m580 -150 c0 -2 -10 -12 -22 -23 l-23 -19 19 23 c18 21 26 27 26
19z m-233 -23 c-3 -3 -12 -4 -19 -1 -8 3 -5 6 6 6 11 1 17 -2 13 -5z m940 -60
c-3 -3 -12 -4 -19 -1 -8 3 -5 6 6 6 11 1 17 -2 13 -5z m64 -51 c13 -16 12 -17
-3 -4 -10 7 -18 15 -18 17 0 8 8 3 21 -13z m-1671 -57 c0 -2 -8 -10 -17 -17
-16 -13 -17 -12 -4 4 13 16 21 21 21 13z m1609 -25 c43 -31 48 -96 20 -263
-22 -138 -30 -185 -35 -209 -4 -23 -12 -28 -52 -34 -66 -10 -163 -47 -203 -78
-20 -15 -62 -63 -93 -107 -58 -80 -86 -147 -86 -203 0 -22 -4 -28 -15 -23 -37
14 9 -99 57 -139 34 -29 30 -32 -13 -9 -54 27 -178 64 -219 64 -47 0 -213 -35
-243 -52 -12 -6 -44 -32 -72 -58 l-50 -46 -150 8 c-82 4 -169 13 -192 18 -138
33 -255 -22 -293 -136 l-16 -48 -33 117 c-44 162 -54 260 -48 487 4 177 7 203
32 280 34 105 57 152 104 210 49 62 64 73 157 121 70 35 93 42 168 48 101 8
176 -5 260 -43 182 -83 247 -100 354 -94 107 7 176 33 392 148 137 72 211 84
269 41z m128 -3 c-3 -7 -5 -2 -5 12 0 14 2 19 5 13 2 -7 2 -19 0 -25z m-2980
-164 c-3 -3 -12 -4 -19 -1 -8 3 -5 6 6 6 11 1 17 -2 13 -5z m-200 -20 c-3 -3
-12 -4 -19 -1 -8 3 -5 6 6 6 11 1 17 -2 13 -5z m-327 -98 c0 -2 -8 -10 -17
-17 -16 -13 -17 -12 -4 4 13 16 21 21 21 13z m237 -12 c-3 -3 -12 -4 -19 -1
-8 3 -5 6 6 6 11 1 17 -2 13 -5z m250 0 c-3 -3 -12 -4 -19 -1 -8 3 -5 6 6 6
11 1 17 -2 13 -5z m-477 -18 c0 -2 -8 -10 -17 -17 -16 -13 -17 -12 -4 4 13 16
21 21 21 13z m580 -37 c59 -13 135 -52 189 -97 60 -49 135 -154 166 -232 15
-36 32 -70 40 -75 17 -14 50 -124 71 -239 13 -75 14 -102 4 -173 -7 -51 -19
-90 -29 -100 -15 -15 -16 -5 -22 138 -5 129 -10 167 -32 234 -72 220 -220 323
-361 251 l-47 -24 -42 21 c-59 30 -217 32 -244 3 -17 -18 -17 -19 2 -10 40 17
163 16 215 -1 28 -9 50 -18 50 -21 0 -2 -15 -25 -34 -51 -49 -70 -75 -125 -97
-211 -31 -116 -28 -372 3 -372 6 0 8 10 4 23 -17 58 -18 195 -2 286 29 166
119 316 212 351 41 16 112 12 153 -9 199 -102 272 -532 136 -801 -14 -27 -39
-65 -56 -84 -17 -20 -28 -40 -25 -45 10 -16 -79 -25 -105 -10 -22 11 -22 13
-5 23 81 49 106 68 106 81 0 25 -29 17 -80 -20 -26 -19 -74 -47 -106 -63 -53
-24 -70 -27 -169 -27 -105 0 -114 2 -180 34 -141 69 -255 228 -301 421 -40
165 -16 370 63 530 62 127 196 240 321 269 52 12 148 12 202 0z m-640 -93 c0
-2 -8 -10 -17 -17 -16 -13 -17 -12 -4 4 13 16 21 21 21 13z m20 -19 c0 -2 -12
-14 -27 -28 l-28 -24 24 28 c23 25 31 32 31 24z m4161 -36 c68 -26 87 -45 104
-106 14 -48 14 -58 -10 -166 -44 -193 -51 -210 -144 -327 -185 -233 -328 -347
-480 -387 -67 -17 -165 -25 -176 -13 -4 3 12 25 34 48 25 26 41 52 41 67 0 22
3 24 30 18 17 -4 63 -1 102 5 59 10 78 18 100 42 15 17 28 37 28 46 0 9 -12 1
-32 -22 -35 -41 -79 -55 -170 -56 -48 0 -48 0 -48 34 0 18 -10 53 -23 77 -22
42 -23 48 -13 139 7 59 18 104 28 119 24 34 13 40 -16 8 -65 -70 -212 -137
-302 -137 -94 0 -142 18 -201 75 -29 28 -53 58 -53 66 0 8 9 0 21 -18 40 -63
135 -99 240 -90 79 7 223 61 279 105 19 16 44 32 54 35 18 7 18 9 -4 32 -21
22 -26 44 -21 94 1 5 9 12 19 15 9 3 31 31 47 62 56 105 225 240 319 255 74
11 187 2 247 -20z m-740 -126 c6 -118 28 -189 76 -251 19 -26 33 -47 31 -49
-2 -1 -38 -10 -82 -19 -164 -34 -484 -11 -472 33 2 9 9 39 16 66 26 118 166
264 286 300 33 9 64 19 69 21 6 1 24 2 40 1 l30 -2 6 -100z m259 101 c0 -2 -8
-10 -17 -17 -16 -13 -17 -12 -4 4 13 16 21 21 21 13z m-3760 -19 c0 -2 -10
-12 -22 -23 l-23 -19 19 23 c18 21 26 27 26 19z m3710 -31 c0 -2 -8 -10 -17
-17 -16 -13 -17 -12 -4 4 13 16 21 21 21 13z m-67 -41 c-3 -9 -8 -14 -10 -11
-3 3 -2 9 2 15 9 16 15 13 8 -4z m-3796 -197 c-2 -13 -4 -5 -4 17 -1 22 1 32
4 23 2 -10 2 -28 0 -40z m3730 0 c-3 -8 -6 -5 -6 6 -1 11 2 17 5 13 3 -3 4
-12 1 -19z m-3620 -100 c-2 -18 -4 -6 -4 27 0 33 2 48 4 33 2 -15 2 -42 0 -60z
m1750 60 c-3 -8 -6 -5 -6 6 -1 11 2 17 5 13 3 -3 4 -12 1 -19z m-1720 -55 c-3
-10 -5 -2 -5 17 0 19 2 27 5 18 2 -10 2 -26 0 -35z m3574 -57 c-18 -21 -174
-85 -225 -92 l-45 -7 6 39 c3 22 7 40 7 41 1 1 57 7 125 12 68 6 126 13 129
16 11 11 14 4 3 -9z m-311 -26 c0 -5 8 -10 18 -11 10 0 12 -3 5 -6 -7 -2 -13
-10 -13 -18 0 -7 -6 -18 -14 -24 -11 -9 -15 -7 -19 11 -4 12 -2 27 3 33 6 7 7
15 3 18 -3 4 -1 7 5 7 7 0 12 -4 12 -10z m-355 -29 c26 -6 21 -8 -31 -14 -78
-8 -164 -40 -238 -89 -43 -28 -68 -38 -90 -36 l-30 3 39 38 c51 49 73 60 165
80 123 27 138 28 185 18z m293 -3 c-6 -18 -28 -21 -28 -4 0 9 7 16 16 16 9 0
14 -5 12 -12z m-187 -32 c26 -8 61 -22 77 -30 17 -9 40 -16 51 -16 11 0 32 -5
48 -12 27 -11 26 -12 -32 -19 -33 -4 -90 -7 -127 -8 -67 -1 -68 -1 -69 27 -1
22 -2 23 -6 5 -2 -12 -10 -26 -16 -31 -13 -11 -327 -28 -327 -18 0 11 84 58
139 78 113 39 189 46 262 24z m539 0 c0 -2 -7 -7 -16 -10 -8 -3 -12 -2 -9 4 6
10 25 14 25 6z m-54 -31 c-11 -8 -25 -15 -30 -15 -6 1 0 7 14 15 32 19 40 18
16 0z m-83 -64 c89 -15 156 -108 142 -197 -6 -40 -15 -56 -61 -100 -38 -37
-65 -55 -91 -60 -48 -9 -140 10 -175 36 -47 35 -68 19 -26 -20 21 -19 132 -60
164 -60 8 0 14 -8 14 -17 1 -62 67 -216 159 -370 98 -164 200 -397 257 -587
35 -116 57 -340 36 -372 -24 -39 -233 -80 -352 -70 -41 4 -115 17 -164 29
l-90 22 -12 55 c-46 211 -170 567 -269 773 -72 150 -79 184 -61 300 8 51 27
200 41 332 14 132 28 249 30 261 4 19 14 21 126 28 68 4 125 3 128 -1 3 -4 39
-8 79 -9 68 0 71 1 48 13 -14 8 -26 16 -26 18 0 7 47 5 103 -4z m-1053 -29
c181 -12 274 -13 408 -6 94 5 172 6 172 3 0 -3 -17 -141 -37 -305 -20 -164
-37 -339 -37 -389 0 -90 0 -90 63 -220 103 -214 235 -591 271 -778 l8 -38 -32
6 c-17 4 -71 20 -119 36 -49 16 -137 36 -195 44 -59 8 -124 17 -144 20 -68 10
-40 -11 32 -24 l71 -13 -7 -36 c-14 -83 -57 -120 -139 -123 -22 -1 -2 -5 44
-9 78 -7 86 -10 110 -38 33 -40 208 -122 259 -122 21 0 48 8 61 17 24 16 24
16 17 -8 -3 -13 -11 -46 -17 -72 -6 -27 -17 -51 -23 -53 -11 -4 -245 52 -253
60 -2 1 4 24 13 49 9 26 14 52 12 57 -2 6 -12 -15 -23 -47 -10 -32 -19 -59
-20 -61 -1 -1 -45 9 -98 22 -106 27 -187 59 -187 75 0 25 23 117 33 129 12 15
15 13 -60 51 -76 38 -98 64 -78 95 7 11 16 36 20 54 4 17 8 32 10 32 1 0 20
-6 41 -14 55 -19 134 -29 134 -17 0 5 -19 12 -42 16 -83 13 -287 86 -323 115
-79 63 -117 103 -140 148 -21 40 -25 43 -25 22 0 -14 9 -44 21 -65 11 -22 32
-69 46 -105 41 -107 153 -307 206 -368 28 -31 70 -71 94 -89 58 -41 186 -87
315 -113 57 -12 135 -29 173 -40 190 -51 475 -92 553 -79 58 9 146 37 226 73
37 16 63 23 69 17 14 -14 -1 -66 -33 -109 -38 -54 -82 -72 -172 -72 -40 0
-126 -5 -190 -10 -171 -14 -337 1 -490 44 -212 60 -309 100 -419 171 -60 39
-149 132 -149 156 0 5 -5 9 -11 9 -20 0 26 -62 91 -123 78 -74 188 -131 358
-186 228 -75 279 -84 472 -85 96 -1 222 3 280 7 l105 8 -38 -39 c-25 -26 -86
-64 -170 -106 -126 -63 -138 -67 -266 -86 -149 -22 -236 -25 -361 -10 -47 6
-130 15 -185 20 -192 17 -446 88 -703 196 -128 54 -176 91 -252 195 -69 95
-93 139 -126 239 -26 77 -29 98 -29 215 1 146 18 211 94 364 35 68 195 316
254 391 38 49 107 156 138 215 17 33 48 85 68 115 45 67 61 103 61 135 0 14 5
25 11 25 6 0 63 22 127 49 65 27 134 52 155 55 58 11 46 29 -15 24 -32 -3 -96
-24 -163 -53 -101 -44 -115 -47 -172 -42 -88 7 -132 31 -170 97 -28 46 -33 64
-33 118 0 76 22 119 77 153 39 24 98 40 123 32 8 -3 121 -12 250 -21z m-613
-234 c-3 -7 -5 -2 -5 12 0 14 2 19 5 13 2 -7 2 -19 0 -25z m-1536 -25 c13 -16
12 -17 -3 -4 -10 7 -18 15 -18 17 0 8 8 3 21 -13z m34 -43 c10 -11 16 -20 13
-20 -3 0 -13 9 -23 20 -10 11 -16 20 -13 20 3 0 13 -9 23 -20z m-24 -17 c13
-16 12 -17 -3 -4 -10 7 -18 15 -18 17 0 8 8 3 21 -13z m799 -56 c0 -2 -10 -12
-22 -23 l-23 -19 19 23 c18 21 26 27 26 19z m-323 -173 c-3 -3 -12 -4 -19 -1
-8 3 -5 6 6 6 11 1 17 -2 13 -5z m1383 -8 c0 -2 -8 -10 -17 -17 -16 -13 -17
-12 -4 4 13 16 21 21 21 13z m1557 -158 c-3 -8 -6 -5 -6 6 -1 11 2 17 5 13 3
-3 4 -12 1 -19z m-2520 -670 c-2 -13 -4 -3 -4 22 0 25 2 35 4 23 2 -13 2 -33
0 -45z m30 20 c-3 -8 -6 -5 -6 6 -1 11 2 17 5 13 3 -3 4 -12 1 -19z m1260
-198 c71 -23 72 -24 66 -54 -11 -58 -30 -83 -77 -99 -36 -12 -47 -13 -55 -3
-10 12 -87 173 -117 244 l-14 33 63 -49 c42 -34 85 -57 134 -72z m-1070 -82
c-3 -8 -6 -5 -6 6 -1 11 2 17 5 13 3 -3 4 -12 1 -19z m1693 -58 c52 -16 114
-34 138 -40 50 -13 51 -21 23 -125 -22 -78 -54 -115 -101 -115 -37 0 -206 73
-237 102 -46 43 -50 94 -17 205 5 18 79 7 194 -27z m-571 -27 c5 -10 36 -32
68 -50 32 -17 57 -37 56 -45 -7 -39 -25 -123 -28 -126 -15 -15 -152 114 -181
170 -18 34 -15 38 29 55 43 16 45 16 56 -4z m856 -49 c33 -9 107 -21 164 -28
l105 -12 9 -34 c14 -55 -8 -134 -46 -166 -31 -26 -34 -26 -132 -21 -109 5
-174 28 -195 67 -7 14 -9 53 -4 115 8 108 3 105 99 79z m495 -33 c0 -82 -51
-120 -161 -121 -36 0 -37 0 -42 48 -2 26 -8 54 -11 63 -6 14 2 18 46 23 29 4
76 13 103 21 28 7 53 14 58 14 4 1 7 -21 7 -48z m-2613 -63 c-3 -8 -6 -5 -6 6
-1 11 2 17 5 13 3 -3 4 -12 1 -19z m2069 -148 c28 -14 73 -25 115 -28 38 -2
69 -9 69 -14 0 -5 -5 -29 -11 -54 -11 -41 -14 -45 -38 -40 -14 3 -51 8 -81 11
-100 11 -170 27 -170 39 0 13 27 121 36 146 4 11 9 8 20 -12 7 -14 34 -36 60
-48z m-1929 8 c-3 -8 -6 -5 -6 6 -1 11 2 17 5 13 3 -3 4 -12 1 -19z m2351 -50
c-3 -45 -7 -55 -29 -65 -48 -23 -137 -41 -176 -36 l-38 5 9 53 c10 52 11 53
49 58 22 3 47 13 56 21 10 11 34 16 74 16 l58 0 -3 -52z m-2746 -630 c-8 -8
-9 -4 -5 13 4 13 8 18 11 10 2 -7 -1 -18 -6 -23z m8 -80 c-1 -28 -2 -30 -11
-15 -6 10 -8 25 -5 34 4 8 1 22 -5 29 -9 12 -15 12 -27 2 -13 -12 -14 -10 -2
9 l14 21 18 -23 c10 -13 18 -38 18 -57z m-28 13 c-4 -10 -7 -11 -10 -3 -2 7
-8 12 -13 12 -6 0 -7 -5 -3 -12 4 -7 3 -8 -4 -4 -20 12 -13 26 12 24 17 -2 22
-7 18 -17z m64 -6 c-1 -8 -8 -21 -16 -28 -10 -10 -11 -9 -4 3 5 8 9 18 10 23
3 14 4 17 8 17 2 0 3 -7 2 -15z m1399 -4 c3 -5 2 -12 -3 -15 -5 -3 -9 1 -9 9
0 17 3 19 12 6z m-1515 -70 c-6 -28 -9 -54 -6 -59 3 -6 -1 -15 -9 -22 -10 -9
-15 -9 -15 -1 0 6 5 11 11 11 5 0 7 5 4 10 -7 11 15 123 23 116 2 -3 -1 -27
-8 -55z m138 23 c0 -17 -3 -22 -8 -13 -5 6 -6 18 -3 26 8 19 11 16 11 -13z
m1407 16 c4 -6 3 -10 -2 -9 -20 3 -34 -2 -28 -11 4 -6 11 -7 17 -4 7 5 8 2 3
-5 -5 -9 -10 -10 -18 -2 -8 8 -15 7 -27 -2 -9 -6 -3 0 12 16 32 30 34 31 43
17z m-1510 -10 c3 -5 1 -10 -4 -10 -6 0 -11 5 -11 10 0 6 2 10 4 10 3 0 8 -4
11 -10z m72 -15 c0 -8 -4 -12 -9 -9 -4 3 -8 9 -8 15 0 5 4 9 8 9 5 0 9 -7 9
-15z m87 -47 c-3 -4 -11 -8 -17 -8 -7 0 -6 4 3 10 13 8 8 14 -10 12 -3 0 -6 8
-6 19 0 19 1 18 17 -3 10 -12 15 -26 13 -30z m1363 20 c-3 -7 -5 -2 -5 12 0
14 2 19 5 13 2 -7 2 -19 0 -25z m-1590 -120 c-3 -8 -6 -5 -6 6 -1 11 2 17 5
13 3 -3 4 -12 1 -19z m1590 -20 c-3 -8 -6 -5 -6 6 -1 11 2 17 5 13 3 -3 4 -12
1 -19z m-1337 -38 c-8 -5 -19 -10 -25 -10 -5 0 -3 5 5 10 8 5 20 10 25 10 6 0
3 -5 -5 -10z"/>
<path d="M3525 4749 c-171 -44 -289 -99 -407 -187 -158 -119 -254 -232 -214
-254 8 -5 41 -31 73 -58 74 -65 160 -106 248 -121 93 -16 319 -5 407 20 65 17
77 24 143 73 l30 22 -25 -28 c-113 -125 -340 -184 -550 -142 -115 24 -152 45
-247 144 -46 48 -83 82 -83 76 0 -6 34 -47 75 -92 91 -97 143 -125 275 -148
150 -26 301 -4 431 61 48 25 144 121 169 171 8 16 20 32 26 36 9 6 5 25 -13
70 -28 69 -40 181 -28 273 l7 57 34 -6 c46 -9 44 10 -3 25 -50 15 -297 21
-348 8z m291 -22 c2 -2 -1 -21 -8 -43 -15 -56 -3 -189 24 -272 l23 -69 -275
-6 c-151 -4 -364 -7 -473 -7 l-198 0 28 37 c57 75 264 233 358 273 22 9 60 26
85 37 108 49 192 63 329 58 57 -2 105 -6 107 -8z m-26 -464 c-81 -75 -85 -78
-150 -98 -40 -12 -106 -19 -237 -22 -101 -3 -183 -3 -183 1 0 4 14 19 30 33
41 34 53 60 52 105 l-2 38 276 0 277 0 -63 -57z m-557 13 c18 -14 18 -16 2
-40 -15 -22 -19 -24 -32 -11 -8 8 -20 15 -26 15 -7 0 -4 5 6 11 9 5 17 17 17
24 0 18 10 18 33 1z m-103 -32 c0 -20 -30 -30 -40 -13 -11 17 7 40 26 32 8 -3
14 -12 14 -19z m60 -34 c8 -5 11 -10 5 -10 -5 0 -17 5 -25 10 -8 5 -10 10 -5
10 6 0 17 -5 25 -10z"/>
<path d="M1433 4631 c-82 -28 -113 -59 -165 -164 -62 -124 -62 -148 0 -32 69
128 71 131 127 162 98 55 280 30 371 -49 19 -17 37 -28 40 -26 3 3 -14 22 -38
42 -48 42 -174 86 -241 86 -23 -1 -65 -9 -94 -19z"/>
<path d="M2107 4043 c-7 -15 -28 -65 -46 -110 -45 -113 -90 -161 -203 -218
-50 -25 -108 -48 -129 -51 -22 -4 -39 -11 -39 -16 0 -34 228 68 293 130 43 41
71 91 117 208 30 75 35 113 7 57z"/>
<path d="M4985 4538 c74 -48 115 -133 115 -242 0 -137 -35 -241 -108 -326 -18
-22 -29 -40 -24 -40 17 0 77 76 105 133 31 63 52 205 43 284 -7 58 -35 124
-69 161 l-20 22 54 0 c72 0 151 -37 206 -98 24 -26 43 -42 43 -36 0 22 -70 91
-121 119 -47 25 -66 30 -149 32 -80 3 -92 1 -75 -9z"/>
<path d="M4084 3875 c1 -61 -3 -77 -20 -97 -32 -35 -41 -56 -15 -33 13 11 29
32 37 47 15 29 19 143 6 152 -5 3 -8 -28 -8 -69z"/>
<path d="M4142 3890 c-2 -60 -5 -69 -48 -125 -59 -77 -74 -113 -73 -172 l1
-48 12 60 c17 83 30 104 84 128 38 18 63 21 137 19 118 -2 145 3 178 33 21 21
27 35 27 69 0 51 -18 70 -73 80 -52 10 -135 -16 -191 -59 l-45 -34 -4 57 -3
57 -2 -65z"/>
<path d="M4500 3902 c40 -35 43 -40 36 -75 -4 -21 -16 -43 -26 -50 -24 -14
-27 -29 -5 -20 21 7 45 56 45 89 0 26 -59 94 -82 94 -6 0 9 -17 32 -38z"/>
<path d="M4295 3510 c5 -8 19 -29 32 -46 12 -17 26 -45 29 -62 4 -18 11 -32
16 -32 21 0 -28 104 -63 135 -13 12 -19 14 -14 5z"/>
<path d="M4220 2545 c0 -3 9 -23 20 -45 11 -22 20 -50 20 -62 1 -13 9 -63 20
-113 13 -61 18 -74 15 -40 -10 107 -26 188 -45 225 -18 36 -30 49 -30 35z"/>
<path d="M4340 2283 c0 -10 5 -25 10 -33 8 -12 10 -9 10 12 0 15 -4 30 -10 33
-5 3 -10 -2 -10 -12z"/>
<path d="M4382 2275 c0 -16 2 -22 5 -12 2 9 2 23 0 30 -3 6 -5 -1 -5 -18z"/>
<path d="M3051 3895 c-17 -20 -31 -41 -30 -48 0 -7 8 -1 17 13 9 14 28 35 41
47 13 13 19 23 13 23 -5 0 -24 -16 -41 -35z"/>
<path d="M3255 3883 c-77 -21 -100 -90 -46 -136 40 -33 109 -41 306 -32 l162
7 31 -42 c17 -23 36 -64 42 -91 14 -56 37 -82 25 -28 -22 98 -64 156 -163 223
-103 69 -284 120 -357 99z"/>
<path d="M3615 3848 c11 -6 33 -22 50 -37 20 -18 25 -20 15 -6 -21 30 -53 55
-70 54 -10 0 -9 -3 5 -11z"/>
<path d="M3120 3751 c11 -21 48 -51 63 -51 5 0 -8 16 -29 35 -42 40 -49 43
-34 16z"/>
<path d="M3447 3431 c-4 -18 -7 -48 -6 -65 l1 -31 9 34 c6 18 9 47 7 65 l-3
31 -8 -34z"/>
<path d="M3555 3373 c8 -61 24 -113 35 -113 4 0 2 17 -6 38 -7 20 -13 56 -14
80 0 23 -5 42 -11 42 -7 0 -8 -17 -4 -47z"/>
<path d="M3165 2790 c-17 -10 -45 -44 -64 -74 -31 -51 -34 -64 -37 -149 l-3
-92 8 82 c12 120 48 189 127 240 11 6 15 12 9 12 -5 0 -24 -8 -40 -19z"/>
<path d="M3130 2688 c-11 -18 -19 -46 -19 -63 l1 -30 8 34 c4 18 18 46 29 62
12 16 17 29 11 29 -6 0 -19 -15 -30 -32z"/>
<path d="M4144 2357 c3 -10 6 -33 6 -50 0 -24 3 -28 10 -17 10 16 3 59 -13 75
-7 7 -8 4 -3 -8z"/>
<path d="M3600 1807 c26 -27 190 -107 218 -106 23 0 21 2 -13 13 -22 7 -80 34
-130 61 -49 26 -83 41 -75 32z"/>
<path d="M4562 1639 c-78 -31 -292 -40 -392 -15 -35 8 -66 13 -69 11 -5 -6 11
-11 103 -31 107 -23 290 -8 377 30 37 16 19 21 -19 5z"/>
</g>
</svg>
